<svg xmlns="http://www.w3.org/2000/svg" viewBox="0 0 64 64" role="img" aria-labelledby="title">
  <title id="title">DnD Share</title>
  <rect width="64" height="64" rx="13" fill="#12121a"/>
  <path d="M12.5 50.5c-1.8-9.6-1.2-25.2 5.4-34.1L32.5 7l13.8 7.5c5.3 6.5 7.1 15.2 5.2 25.2l-4 13.8H17.2z" fill="#21152f" stroke="#09070d" stroke-width="2.4" stroke-linejoin="round"/>
  <path d="M18 18.3 32.6 8.8l13 7.1c3.4 4 5.1 8.7 5.3 14.2l-5.2-4.4-5.5-8.1-8.7-3.8-8.6 5.8-7.1 10.7c-.2-4.7.5-8.7 2.2-12z" fill="#322245"/>
  <path d="m43.8 14.9 5.9 4.4-1.1 4.6-4-2.2z" fill="#4a3560"/>
  <path d="M21.1 27.5c1.6-7.2 7.2-11.6 13.8-11.1 7.5.5 12.2 6.2 11.6 13.7-.6 7.1-5.7 11.7-12.7 11.7-7.9 0-14.3-6.8-12.7-14.3z" fill="#d9a181" stroke="#09070d" stroke-width="2"/>
  <path d="M20 18.8c3.6-4.1 8.2-5.8 13.6-5.4l3.2 2.3c-3.9 4.6-6.2 10.9-7.3 18.8l-8.6 6.2-5-10.4z" fill="#74707d" stroke="#09070d" stroke-width="2" stroke-linejoin="round"/>
  <path d="M22.2 18.6c2.8-2.2 5.7-3.3 8.7-3.4-3.1 5.6-5.1 11.5-5.8 17.8l-3.5 2.5c.4-6.5.6-11.9.6-16.9z" fill="#aaa6b1"/>
  <path d="M35.8 27.2c2.6-2 5.9-1.9 8.3.3-2.3 2.8-5.7 3.2-8.3-.3z" fill="#f0ebf3" stroke="#09070d" stroke-width="1.4"/>
  <ellipse cx="40" cy="27.4" rx="2.4" ry="2.7" fill="#71528f"/>
  <ellipse cx="40" cy="27.6" rx="1.05" ry="1.45" fill="#190e22"/>
  <circle cx="40.8" cy="26.5" r=".55" fill="#c6b6d6"/>
  <path d="M28.8 43.3c4.3 2.7 8.5 2.6 12.7-.2l6.4 10.4H17.2l5.8-10.1z" fill="#2b1b3b"/>
  <path d="m34 40.2 4.4 6.2-4.4 7.8-4.4-7.8z" fill="#124d54" stroke="#09070d" stroke-width="1.5" stroke-linejoin="round"/>
  <path d="m34 42.4 2.5 4-2.5 4.7-2.5-4.7z" fill="#42b9b2"/>
  <path d="m34 45.2 1.1 1.2-1.1 1.8-1.1-1.8z" fill="#12121a"/>
</svg>
